<svg id="Capa_1" enable-background="new 0 0 512 512" height="512" viewBox="0 0 512 512" width="512" xmlns="http://www.w3.org/2000/svg"><g><g><g><path d="m412.374 150.124 23.755 24.819 19.612 4.061v-18.581l-18.571-21.367-24.796-7.512z" fill="#a71f29"/><path d="m455.742 100.622c0-5.701-4.622-10.323-10.323-10.323h-22.722c-5.701 0-10.323 4.622-10.323 10.323v30.921l43.368 28.88z" fill="#c32430"/><path d="m253.229 86.124-184.907 123.135-12.063 17.033v18.581h399.483v-18.581l-12.063-17.033-184.908-123.135c-1.678-1.118-3.864-1.118-5.542 0z" fill="#d8e5ef"/><path d="m253.229 113.705-196.97 131.169v201.682c0 8.551 6.932 15.484 15.484 15.484h368.515c8.552 0 15.484-6.932 15.484-15.484v-201.682l-196.97-131.169c-1.679-1.118-3.865-1.118-5.543 0z" fill="#edf4fa"/><path d="m503.215 210.618-236.292-157.354c-6.616-4.405-15.23-4.405-21.846 0l-236.292 157.354c-9.058 6.032-11.511 18.266-5.479 27.325.822 1.234 1.767 2.333 2.795 3.317.821-.784 10.706-1.519 11.684-2.17l227.292-148.354c6.616-4.405 15.23-4.405 21.846 0l227.292 148.354c.979.652 10.865 1.388 11.687 2.173 1.028-.984 1.97-2.087 2.792-3.32 6.032-9.059 3.579-21.293-5.479-27.325z" fill="#da4a54"/><path d="m30.631 243.422 222.598-148.235c1.679-1.118 3.864-1.118 5.543 0l222.598 148.235c3.359 2.236 7.151 3.306 10.905 3.306 4.992 0 9.906-1.902 13.628-5.464-.822-.785-1.708-1.521-2.687-2.173l-236.293-157.355c-6.616-4.405-15.23-4.405-21.846 0l-236.292 157.354c-.977.651-1.862 1.386-2.683 2.17 6.519 6.239 16.703 7.373 24.529 2.162z" fill="#d82e3d"/></g><g><g fill="#407093"><path d="m183.748 365.434c0 18.669 17.608 30.678 29.781 30.678 16.859 0 21.809-10.905 42.471-10.905s25.612 10.905 42.471 10.905c12.173 0 29.781-12.009 29.781-30.678-4.337-17.792-18.997-21.309-25.018-31.645-4.845-8.317-11.363-46.9-47.233-46.9-35.871 0-42.388 38.584-47.233 46.9-6.023 10.337-20.683 13.854-25.02 31.645z"/><path d="m141.516 295.338c8.36 14.48 23.775 21.232 34.43 15.08 3.773-2.179 7.942-10.526 7.942-18.949-.865-2.964-2.119-5.94-3.786-8.828-8.36-14.48-23.775-21.231-34.43-15.08-3.773 2.179-6.438 5.687-7.942 9.949-.001 7.218 2.119 14.941 3.786 17.828z"/><path d="m190.558 229.426c4.864 17.732 19.385 29.205 32.434 25.626 7.688-2.109 15.341-13.789 15.341-26.885-.158-.707-.327-1.414-.522-2.123-4.864-17.732-19.385-29.206-32.434-25.627-7.688 2.109-13.146 8.975-15.341 17.885 0 3.057.522 11.124.522 11.124z"/></g><path d="m328.252 365.434c-4.008 14.402-17.608 21.678-29.781 21.678-16.859 0-21.809-10.905-42.471-10.905s-25.612 10.905-42.471 10.905c-12.173 0-25.772-7.275-29.781-21.678-.397 1.628-.715 3.365-.924 5.249-2.583 23.244 15.221 35.01 30.705 35.01 16.859 0 21.809-10.905 42.471-10.905s25.612 10.905 42.471 10.905c15.484 0 33.288-11.766 30.705-35.01-.209-1.884-.527-3.62-.924-5.249z" fill="#365e7d"/><path d="m175.946 301.418c-10.655 6.152-26.07-.6-34.43-15.08-1.667-2.887-2.921-5.864-3.786-8.828-2.743 7.772-1.613 18.057 3.786 27.409 8.36 14.48 23.775 21.232 34.43 15.08 8.53-4.925 11.417-16.628 7.942-28.529-1.504 4.261-4.169 7.77-7.942 9.948z" fill="#365e7d"/><path d="m222.991 246.052c-13.049 3.579-27.57-7.894-32.434-25.626-.195-.709-.364-1.416-.522-2.123-1.531 6.213-1.476 13.419.522 20.704 4.864 17.732 19.385 29.206 32.434 25.627 12.527-3.436 19.136-19.497 15.341-36.466-2.195 8.91-7.653 15.775-15.341 17.884z" fill="#365e7d"/><path d="m370.484 295.338c-8.36 14.48-23.775 21.232-34.43 15.08-3.773-2.179-7.942-10.526-7.942-18.949.866-2.964 2.119-5.94 3.786-8.828 8.36-14.48 23.775-21.231 34.43-15.08 3.773 2.179 6.438 5.687 7.942 9.949 0 7.218-2.119 14.941-3.786 17.828z" fill="#407093"/><path d="m321.442 229.426c-4.864 17.732-19.385 29.205-32.434 25.626-7.688-2.109-15.341-13.789-15.341-26.885.158-.707.327-1.414.522-2.123 4.864-17.732 19.385-29.206 32.434-25.627 7.688 2.109 13.146 8.975 15.341 17.885 0 3.057-.522 11.124-.522 11.124z" fill="#407093"/><path d="m336.054 301.418c10.655 6.152 26.07-.6 34.43-15.08 1.667-2.887 2.921-5.864 3.786-8.828 2.743 7.772 1.613 18.057-3.786 27.409-8.36 14.48-23.775 21.232-34.43 15.08-8.53-4.925-11.417-16.628-7.942-28.529 1.504 4.261 4.169 7.77 7.942 9.948z" fill="#365e7d"/><path d="m289.009 246.052c13.049 3.579 27.569-7.894 32.434-25.626.194-.709.364-1.416.522-2.123 1.531 6.213 1.476 13.419-.522 20.704-4.864 17.732-19.385 29.206-32.434 25.627-12.527-3.436-19.136-19.497-15.341-36.466 2.195 8.91 7.653 15.775 15.341 17.884z" fill="#365e7d"/></g></g></g></svg>