<svg id="Capa_1" enable-background="new 0 0 512 512" height="512" viewBox="0 0 512 512" width="512" xmlns="http://www.w3.org/2000/svg"><g><g fill="#cbafea"><circle cx="456.574" cy="190.019" r="22.288"/><circle cx="477.897" cy="101.39" r="33.103"/><circle cx="29.433" cy="158.869" r="28.434"/></g><path d="m465.823 210.296c-2.812 1.288-5.944 2.009-9.251 2.009-12.31 0-22.293-9.972-22.293-22.283s9.982-22.293 22.293-22.293c3.307 0 6.439.721 9.251 2.009-7.695 3.513-13.042 11.28-13.042 20.284s5.346 16.761 13.042 20.274z" fill="#bc95e2"/><path d="m487.147 133.187c-2.936.855-6.037 1.308-9.251 1.308-18.286 0-33.099-14.824-33.099-33.099 0-18.286 14.814-33.11 33.099-33.11 3.214 0 6.315.453 9.251 1.308-13.784 4.007-23.859 16.73-23.859 31.801s10.076 27.785 23.859 31.792z" fill="#bc95e2"/><path d="m38.684 185.757c-2.895.999-6.016 1.545-9.251 1.545-15.7 0-28.433-12.722-28.433-28.433 0-15.7 12.733-28.433 28.433-28.433 3.235 0 6.356.546 9.251 1.545-11.167 3.832-19.182 14.422-19.182 26.887 0 12.477 8.014 23.057 19.182 26.889z" fill="#bc95e2"/><path d="m441.546 378.84-5.831 17.163-21.551 63.5c-10.652 31.389-40.104 52.497-73.245 52.497h-202.634c-33.141 0-62.603-21.108-73.255-52.497l-21.551-63.5-5.831-17.163 200.729-28.093z" fill="#f9f6f6"/><path d="m441.546 378.84-5.831 17.163h-392.237l-5.831-17.163 200.729-28.093z" fill="#dddaec"/><path d="m183.3 512h-45.018c-33.14 0-62.603-21.108-73.255-52.497l-27.372-80.663 200.718-28.093.35.051-111.33 28.042 15.216 80.662c5.912 31.39 22.282 52.498 40.691 52.498z" fill="#dddaec"/><path d="m239.599 350.912-.876-.113.196-.052z" fill="#dddaec"/><path d="m417.729 343.9c20.15 0 36.484-16.335 36.484-36.484 0-15.541-9.721-28.804-23.411-34.062 1.5-3.22 2.342-6.808 2.342-10.594 0-13.878-11.251-25.129-25.129-25.129-1.33 0-2.636.105-3.911.305-1.618-18.654-17.263-33.292-36.337-33.292-3.709 0-7.287.558-10.66 1.586h-231.743v1.176c-4.295-1.777-9-2.763-13.936-2.763-19.073 0-34.718 14.638-36.337 33.292-1.275-.199-2.58-.305-3.911-.305-13.878 0-25.129 11.251-25.129 25.129 0 3.786.843 7.374 2.342 10.594-13.69 5.258-23.411 18.521-23.411 34.062 0 20.15 16.334 36.484 36.484 36.484" fill="#cbafea"/><path d="m125.363 206.222h29.679c-13.969 4.265-24.374 16.678-25.672 31.709-1.267-.196-2.575-.299-3.904-.299-13.887 0-25.136 11.249-25.136 25.126 0 3.781.845 7.376 2.349 10.59-13.691 5.264-23.416 18.522-23.416 34.068 0 20.15 16.339 36.478 36.489 36.478h-54.28c-20.15 0-36.489-16.328-36.489-36.478 0-15.545 9.725-28.804 23.416-34.068-1.504-3.214-2.349-6.809-2.349-10.59 0-13.876 11.25-25.126 25.136-25.126 1.329 0 2.627.103 3.904.299 1.617-18.656 17.266-33.295 36.334-33.295 4.945 0 9.642.989 13.938 2.771v-1.185z" fill="#bc95e2"/><path d="m291.212 30.146h-31.585l-24.026 10.571-16.049-10.571h-31.568c-43.768 0-79.25 35.481-79.25 79.25v93.635c0 43.768 35.481 79.25 79.25 79.25h103.227c43.768 0 79.25-35.481 79.25-79.25v-93.635c0-43.769-35.481-79.25-79.249-79.25z" fill="#d09080"/><path d="m272.748 282.279h-84.762c-43.772 0-79.251-35.479-79.251-79.251v-93.632c0-43.762 35.479-79.251 79.251-79.251h31.566l17.761 2.521 22.313-2.521h13.122c-43.772 0-79.251 35.489-79.251 79.251v93.632c0 43.772 35.479 79.251 79.251 79.251z" fill="#c67d66"/><circle cx="239.598" cy="259.671" fill="#da4a54" r="47.846"/><path d="m219.552 30.143h40.074v141.135h-40.074z" fill="#f9f6f6"/><path d="m259.626 30.143v1.092c-15.278 2.534-29.082 9.447-40.074 19.409v-20.501z" fill="#dddaec"/><path d="m239.598 171.286h-43.48c-23.665 0-42.849 19.184-42.849 42.849v45.536c0 23.839 19.325 43.164 43.164 43.164 23.839 0 43.164-19.325 43.164-43.164 0 23.839 19.325 43.164 43.164 43.164 23.839 0 43.164-19.325 43.164-43.164v-45.536c0-23.665-19.184-42.849-42.849-42.849z" fill="#f9f6f6"/><path d="m218.819 296.582c-6.531 3.966-14.196 6.253-22.386 6.253-23.838 0-43.164-19.326-43.164-43.164v-45.544c0-23.663 19.192-42.845 42.855-42.845h44.761c-23.663 0-42.845 19.182-42.845 42.845v45.544c.001 15.648 8.314 29.339 20.779 36.911z" fill="#dddaec"/><path d="m260.838 154.843h-42.479c-12.109 0-21.925 9.816-21.925 21.925 0 12.109 9.816 21.925 21.925 21.925h6.852v13.018c0 7.946 6.442 14.388 14.388 14.388 7.946 0 14.388-6.442 14.388-14.388v-13.018h6.852c12.109 0 21.925-9.816 21.925-21.925-.002-12.109-9.818-21.925-21.926-21.925z" fill="#30579d"/><path d="m246.253 224.465c-1.988 1.04-4.244 1.628-6.655 1.628-7.953 0-14.391-6.439-14.391-14.391v-13.012h-6.851c-6.057 0-11.538-2.452-15.504-6.418-3.966-3.977-6.418-9.457-6.418-15.504 0-12.115 9.807-21.932 21.922-21.932h20.171c-12.115 0-21.932 9.817-21.932 21.932 0 6.047 2.452 11.528 6.418 15.504 3.976 3.966 9.457 6.418 15.514 6.418v13.011c0 5.542 3.131 10.353 7.726 12.764z" fill="#26457d"/><path d="m116.727 9.131-51.845 51.845c-12.173 12.173-12.173 31.909 0 44.081l24.626 24.626c16.191 16.191 43.728 9.983 51.406-11.589l27.218-76.47c4.035-11.337 1.184-23.984-7.325-32.493-12.172-12.172-31.908-12.172-44.08 0z" fill="#f9f6f6"/><path d="m104.39 60.08c-12.177 12.166-12.177 31.904 0 44.081l24.621 24.621c.917.917 1.875 1.772 2.864 2.534-11.744 10.054-30.236 10.497-42.371-1.638l-24.621-24.621c-12.177-12.177-12.177-31.915 0-44.081l51.838-51.848c6.088-6.079 14.072-9.128 22.045-9.128 6.789 0 13.578 2.215 19.202 6.634-.597.494-1.174 1.03-1.741 1.597z" fill="#dddaec"/><path d="m362.469 9.131 51.844 51.844c12.173 12.173 12.173 31.909 0 44.081l-24.626 24.626c-16.191 16.191-43.728 9.983-51.406-11.589l-27.218-76.47c-4.035-11.337-1.184-23.984 7.325-32.493 12.173-12.171 31.909-12.171 44.081.001z" fill="#f9f6f6"/><path d="m383.515 134.494c-16.256 9.704-38.467 2.637-45.235-16.39l-27.217-76.48c-4.038-11.332-1.185-23.982 7.324-32.492 6.078-6.088 14.062-9.127 22.035-9.127 5.501 0 10.992 1.442 15.875 4.337-2.205 1.298-4.275 2.895-6.16 4.79-8.509 8.509-11.363 21.16-7.335 32.492l27.227 76.48c2.607 7.335 7.511 12.888 13.486 16.39z" fill="#dddaec"/><g fill="#26457d"><path d="m177.249 115.001c-6.871 0-12.461 8.971-12.461 19.998s5.59 19.998 12.461 19.998 12.462-8.971 12.462-19.998-5.59-19.998-12.462-19.998z"/><path d="m301.947 115.001c-6.871 0-12.462 8.971-12.462 19.998s5.591 19.998 12.462 19.998 12.461-8.971 12.461-19.998c-.001-11.027-5.59-19.998-12.461-19.998z"/></g><path d="m441.545 330.539h-403.894c-13.338 0-24.151 10.813-24.151 24.151 0 13.338 10.813 24.151 24.151 24.151h403.895c13.338 0 24.151-10.813 24.151-24.151 0-13.338-10.813-24.151-24.152-24.151z" fill="#f9f6f6"/><path d="m103.474 371.771c4.368 4.368 10.405 7.067 17.08 7.067h-82.908c-6.675 0-12.712-2.699-17.08-7.067s-7.067-10.405-7.067-17.08c0-13.341 10.806-24.158 24.147-24.158h82.908c-13.341 0-24.157 10.817-24.157 24.158 0 6.675 2.709 12.712 7.077 17.08z" fill="#dddaec"/><g><g><path d="m304.404 327.874v9.451c0 6.79 5.312 12.615 12.102 12.739 6.917.126 12.564-5.443 12.564-12.33 0 6.811 5.522 12.333 12.333 12.333 6.811 0 12.333-5.522 12.333-12.333 0 6.888 5.647 12.457 12.563 12.33 6.789-.124 12.102-5.949 12.102-12.739v-9.451c0-10.447-8.469-18.917-18.917-18.917h-36.163c-10.448 0-18.917 8.469-18.917 18.917z" fill="#d09080"/><path d="m323.936 327.874v9.457c0 2.915.979 5.645 2.637 7.84-2.287 3.039-5.954 4.976-10.065 4.893-6.789-.124-12.105-5.944-12.105-12.733v-9.457c0-10.446 8.468-18.914 18.924-18.914h19.522c-10.445 0-18.913 8.468-18.913 18.914z" fill="#c67d66"/></g><g><path d="m100.796 327.874v9.451c0 6.79 5.312 12.615 12.102 12.739 6.917.126 12.563-5.443 12.563-12.33 0 6.811 5.522 12.333 12.333 12.333 6.811 0 12.333-5.522 12.333-12.333 0 6.888 5.647 12.457 12.563 12.33 6.789-.124 12.102-5.949 12.102-12.739v-9.451c0-10.447-8.469-18.917-18.917-18.917h-36.163c-10.447 0-18.916 8.469-18.916 18.917z" fill="#d09080"/><path d="m120.328 327.874v9.457c0 2.915.979 5.645 2.637 7.84-2.287 3.039-5.954 4.976-10.065 4.893-6.789-.124-12.105-5.944-12.105-12.733v-9.457c0-10.446 8.468-18.914 18.924-18.914h19.522c-10.445 0-18.913 8.468-18.913 18.914z" fill="#c67d66"/></g></g></g></svg>