<svg height="512" viewBox="0 0 512 512" width="512" xmlns="http://www.w3.org/2000/svg"><g id="flat"><circle cx="304" cy="108.845" fill="#27c5a7" r="24"/><path d="m368 452.845h-30.46a25.539 25.539 0 0 1 -25.54-25.539 25.539 25.539 0 0 1 12.4-21.9l35.6-21.406 24 36.845z" fill="#015078"/><path d="m24 348.845 28.1-5.619a53.514 53.514 0 0 0 21.611-9.663l22.289-16.718 7.436-4.845 8.564 28.845-17.731 13.3a53.51 53.51 0 0 1 -32.105 10.7 53.508 53.508 0 0 1 -37.836-15.672z" fill="#d18d28"/><path d="m112.252 281.759a76.868 76.868 0 0 1 19.8-21.949 127.341 127.341 0 0 0 32.784-36.351l4.613-7.688a46.005 46.005 0 0 0 6.551-23.671v-35.255l24-24 28 7 20-7 16 24-30 24 6 40 1.928 4.5a46 46 0 0 1 1.1 33.431l-.025.07 30.946 15.054a16 16 0 0 1 8.179 9.328l13.872 41.617-24 8-16-32-32-8-48 24-16 24 11.848 23.7a16 16 0 0 1 -1 16.03l-10.848 16.27-8 56h-24v-72l-12.67-12.669a50 50 0 0 1 -13.964-27.136l-.173-1.04a85.8 85.8 0 0 1 11.059-58.241z" fill="#ea9d2d"/><path d="m193.62 187.97a15.651 15.651 0 0 1 -12.31 6.28l-4.89.08-.37-37.53 9.35-9.35 10.17 25.06a15.763 15.763 0 0 1 -1.95 15.46z" fill="#ea9d2d"/><path d="m296 132.845 24-8 24 80 48 32-24 24-56-40-8-56-8-8z" fill="#fdc9a6"/><path d="m486 372.845-10.268-73.608a210.024 210.024 0 0 0 -12.163-43.468l-.026-.065a30 30 0 0 0 -27.854-18.859h-43.689l-24 24 24 16v56z" fill="#02a437"/><path d="m352.655 377.618 18.012 43.227h53.333l-8-12.845 18.129 7.277a50 50 0 0 0 28.522 2.61 31.6 31.6 0 0 0 16.093-8.631q.493-.493.963-1.007a31.542 31.542 0 0 0 7.663-25.768l-1.37-9.636-89.089-39.038a33.6 33.6 0 0 0 -37 7.126 33.6 33.6 0 0 0 -7.256 36.685z" fill="#026ca2"/><path d="m456 284.845v-32a16 16 0 0 0 -16-16 16 16 0 0 0 -16 16v32z" fill="#029532"/><path d="m424 284.845v40h-78a18 18 0 0 0 -18 18v14h104a24 24 0 0 0 24-24v-48z" fill="#fdc9a6"/><path d="m392 168.332h32l16 24v4.687a27.313 27.313 0 0 1 -8 19.313v20.513h-32v-20.513a27.313 27.313 0 0 1 -8-19.313z" fill="#fdc9a6"/><path d="m392 168.332-4.924-14.773a15.736 15.736 0 0 1 3.8-16.1 15.739 15.739 0 0 1 19.858-1.966l13.266 8.839h8.929a20.911 20.911 0 0 1 19.837 14.3 20.911 20.911 0 0 1 -2.439 18.212l-10.327 15.488-16-24z" fill="#55300b"/><circle cx="212" cy="156.845" fill="#c38325" r="7"/><path d="m193.62 187.97a15.651 15.651 0 0 1 -12.31 6.28l-4.89.08-.37-37.53 9.35-9.35 10.17 25.06a15.763 15.763 0 0 1 -1.95 15.46z" fill="#c38325"/><g fill="#6ee7f5"><path d="m46.245 406.851a54.784 54.784 0 0 1 -15.883-2.351 8 8 0 1 1 4.638-15.311 38.974 38.974 0 0 0 31.178-3.806l5.73-3.411a8 8 0 1 1 8.184 13.748l-5.729 3.411a55.006 55.006 0 0 1 -28.118 7.72z"/><path d="m149.766 161.846a8 8 0 0 1 -8-8 51.871 51.871 0 0 1 13.334-34.754l7.133-7.925a8 8 0 1 1 11.892 10.7l-7.125 7.928a35.894 35.894 0 0 0 -9.229 24.051 8 8 0 0 1 -8.005 8z"/><path d="m360.007 87.006a7.993 7.993 0 0 1 -6.677-3.584l-.642-.969a23.267 23.267 0 0 0 -19.45-10.453 8 8 0 0 1 0-16 39.227 39.227 0 0 1 32.792 17.621l.64.967a8 8 0 0 1 -6.663 12.418z"/></g><path d="m370.667 420.845-10.667 16v16h64v-32z" fill="#cbcbcb"/><path d="m416 408 8 12.85h-9.82l-28.69-40.2a8 8 0 0 1 13.02-9.3l29.63 41.52z" fill="#015078"/><path d="m328 108.85c0 .14 0 .28-.01.42a1.945 1.945 0 0 1 -.22.08 145.433 145.433 0 0 1 -46.16 7.5h-.24a24.043 24.043 0 0 1 0-16h.24a129.766 129.766 0 0 0 41.11-6.68 1.655 1.655 0 0 1 .21-.06 23.821 23.821 0 0 1 5.07 14.74z" fill="#2ad3b3"/><path d="m392 236.845v40l-24-16z" fill="#029532"/></g></svg>